<?xml version="1.0" encoding="UTF-8"?>
<svg version="1.1" xmlns="http://www.w3.org/2000/svg" width="512" height="512">
<path d="M0 0 C84.48 0 168.96 0 256 0 C256 108.57 256 217.14 256 329 C171.52 329 87.04 329 0 329 C0 220.43 0 111.86 0 0 Z M76.27978516 72.42285156 C64.39756301 87.0659563 60.9542945 104.61801978 62 123 C64.07649341 140.45016484 73.96085492 155.46617439 87.03515625 166.828125 C92.89530576 171.12093544 99.33783037 174.15771085 106 177 C106.89074219 177.38414062 107.78148437 177.76828125 108.69921875 178.1640625 C124.90134823 183.74740502 142.77795833 180.21304248 158.00390625 173.71875 C173.46448425 166.15340316 185.06790188 151.72533088 191.0703125 135.80859375 C196.43877399 119.59042649 195.34149806 102.16367046 188.4921875 86.56640625 C179.72828282 69.26278979 166.65512993 57.46322716 148.3359375 51.0703125 C121.72813853 42.62977204 94.50959114 51.7966705 76.27978516 72.42285156 Z M60.73802185 215.31188965 C58.68111274 217.97400395 58.68111274 217.97400395 58.9375 221.625 C60.12005086 225.38133802 60.69149518 226.08127299 64 228 C66.52551528 228.45351651 66.52551528 228.45351651 69.30674744 228.39440918 C70.9196743 228.41143387 70.9196743 228.41143387 72.56518555 228.42880249 C73.73984375 228.42587189 74.91450195 228.42294128 76.12475586 228.41992188 C77.98627037 228.43262619 77.98627037 228.43262619 79.88539124 228.44558716 C83.28638487 228.46497972 86.68682987 228.47073413 90.08784175 228.46883965 C92.92832322 228.46871993 95.76875338 228.47728445 98.60922056 228.48561716 C105.31104842 228.50484967 112.01275172 228.50773558 118.71459961 228.50097656 C125.62553849 228.49433488 132.53594377 228.51720496 139.44677442 228.55429029 C145.3832211 228.58498943 151.31949614 228.59634716 157.25602061 228.59245348 C160.80035479 228.59038622 164.3442737 228.59586071 167.88853264 228.62034607 C171.84118431 228.64675105 175.7931372 228.63288349 179.74584961 228.61523438 C181.50480057 228.63512924 181.50480057 228.63512924 183.29928589 228.65542603 C189.7046268 228.62482775 189.7046268 228.62482775 195.26197815 225.68811035 C197.31888726 223.02599605 197.31888726 223.02599605 197.0625 219.375 C195.87994914 215.61866198 195.30850482 214.91872701 192 213 C189.47448472 212.54648349 189.47448472 212.54648349 186.69325256 212.60559082 C185.0803257 212.58856613 185.0803257 212.58856613 183.43481445 212.57119751 C182.26015625 212.57412811 181.08549805 212.57705872 179.87524414 212.58007812 C178.63423447 212.57160858 177.39322479 212.56313904 176.11460876 212.55441284 C172.71361513 212.53502028 169.31317013 212.52926587 165.91215825 212.53116035 C163.07167678 212.53128007 160.23124662 212.52271555 157.39077944 212.51438284 C150.68895158 212.49515033 143.98724828 212.49226442 137.28540039 212.49902344 C130.37446151 212.50566512 123.46405623 212.48279504 116.55322558 212.44570971 C110.6167789 212.41501057 104.68050386 212.40365284 98.74397939 212.40754652 C95.19964521 212.40961378 91.6557263 212.40413929 88.11146736 212.37965393 C84.15881569 212.35324895 80.2068628 212.36711651 76.25415039 212.38476562 C75.08151642 212.37150238 73.90888245 212.35823914 72.70071411 212.34457397 C66.2953732 212.37517225 66.2953732 212.37517225 60.73802185 215.31188965 Z M29.54730225 270.84815216 C27.42125874 273.80486094 27.41714013 275.42998329 28 279 C29.46278802 281.78705152 29.46278802 281.78705152 32 284 C34.78321993 284.50105383 36.96082456 284.67313492 39.74316406 284.62818909 C40.9201203 284.63883067 40.9201203 284.63883067 42.12085342 284.64968723 C44.75294061 284.667305 47.38355842 284.64914419 50.015625 284.63110352 C51.90133335 284.63624091 53.78703691 284.64352083 55.67272949 284.65278625 C60.79674491 284.67133137 65.92024129 284.65834201 71.04423523 284.63869596 C76.40221786 284.62233385 81.76016699 284.63111895 87.11816406 284.63621521 C96.11662099 284.64073889 105.11487024 284.62484925 114.11328125 284.59692383 C124.52211537 284.56487075 134.93057486 284.5648868 145.33943558 284.5821386 C155.34543819 284.59799298 165.35130323 284.59127712 175.3572998 284.57420158 C179.61881158 284.56732238 183.88021337 284.56837246 188.14172363 284.57574654 C193.15853767 284.58339806 198.17492451 284.57132026 203.19166565 284.54389763 C205.03474153 284.53700081 206.87785722 284.53692967 208.72093201 284.54411316 C211.23337949 284.55277842 213.74449966 284.53690263 216.25683594 284.5146637 C217.35585928 284.52702485 217.35585928 284.52702485 218.47708511 284.53963572 C221.85500373 284.48429288 223.7045629 284.21843316 226.45269775 282.18658352 C228.7190106 278.98392396 228.54642761 276.82499325 228 273 C226.51815778 270.66342592 226.51815778 270.66342592 224 269 C221.28343869 268.60701257 218.97176274 268.459002 216.25683594 268.49206543 C215.47219845 268.48582547 214.68756096 268.4795855 213.87914658 268.47315645 C211.2472513 268.45718844 208.61627731 268.46984519 205.984375 268.48242188 C204.098668 268.47700244 202.21296523 268.46988078 200.32727051 268.46118164 C195.20332996 268.44292417 190.07971105 268.45002585 184.95576477 268.46269798 C179.59777956 268.47281308 174.23982221 268.46343645 168.88183594 268.45715332 C159.88341315 268.44987257 150.88512162 268.45947586 141.88671875 268.47851562 C131.47789365 268.50028514 121.06938193 268.49323408 110.66056442 268.47121 C101.7296823 268.45306821 92.79889462 268.45049172 83.86800003 268.46096468 C78.53137321 268.46720631 73.19489377 268.46801682 67.85827637 268.45481873 C62.84147953 268.44327863 57.82508739 268.45125232 52.80833435 268.47439575 C50.96525241 268.47969269 49.12213651 268.47815229 47.27906799 268.46934509 C44.76663753 268.45844464 42.255511 268.47208556 39.74316406 268.49206543 C38.64414072 268.4786811 38.64414072 268.4786811 37.52291489 268.46502638 C34.12002855 268.51766612 32.29878092 268.77486316 29.54730225 270.84815216 Z " fill="#00CCD9" transform="translate(250,139)"/>
<path d="M0 0 C0.66352656 -0.00350607 1.32705312 -0.00701215 2.01068655 -0.01062447 C4.23788354 -0.01994104 6.4648192 -0.01501457 8.69202709 -0.01015663 C10.30343994 -0.01389277 11.91485097 -0.01849414 13.52625912 -0.02388728 C17.95755357 -0.03613726 22.38877264 -0.03585446 26.82008016 -0.03349853 C31.59797958 -0.03309086 36.37585467 -0.04412466 41.15374279 -0.05361366 C50.51576651 -0.07023556 59.87776504 -0.07572375 69.23980228 -0.07683842 C76.84879122 -0.07778832 84.45777184 -0.08189574 92.06675816 -0.08823967 C113.63366994 -0.10585529 135.2005618 -0.11507803 156.76748083 -0.11357872 C157.93046729 -0.11349881 159.09345376 -0.1134189 160.29168224 -0.11333656 C161.45608663 -0.1132548 162.62049101 -0.11317304 163.82018038 -0.1130888 C182.69351626 -0.1122758 201.56677235 -0.13141623 220.44008515 -0.1596133 C239.81322037 -0.18832901 259.18631665 -0.20215432 278.55947369 -0.20042574 C289.43838188 -0.19976139 300.31720643 -0.20527353 311.19609547 -0.22678185 C320.45832039 -0.24497635 329.72042375 -0.2493552 338.98265878 -0.235763 C343.70871659 -0.22922463 348.43454108 -0.22914748 353.16057682 -0.2464695 C357.48784464 -0.26216687 361.81469348 -0.25937083 366.14195087 -0.24190123 C367.70653821 -0.23882397 369.27115657 -0.24249106 370.83570734 -0.25362138 C380.09598577 -0.31513126 386.80449805 0.0633269 394.39446545 5.85492516 C398.30071545 9.92393557 398.30071545 9.92393557 398.30071545 13.25726891 C334.61071545 13.25726891 270.92071545 13.25726891 205.30071545 13.25726891 C205.30071545 51.20726891 205.30071545 89.15726891 205.30071545 128.25726891 C186.82071545 128.25726891 168.34071545 128.25726891 149.30071545 128.25726891 C149.30071545 138.48726891 149.30071545 148.71726891 149.30071545 159.25726891 C142.21368425 157.32444222 135.34314699 155.34475535 128.44134045 152.91351891 C127.05844326 152.43167641 127.05844326 152.43167641 125.64760876 151.94009972 C122.61414926 150.88245217 119.58246927 149.81979475 116.55071545 148.75726891 C113.27235798 147.61307255 109.99352741 146.47023867 106.71468639 145.32742882 C104.42529226 144.52937252 102.13604897 143.73088336 99.84694958 142.93198204 C88.20784778 138.87101327 76.55510199 134.84987678 64.90139294 130.83106041 C46.6704742 124.54305741 28.44711105 118.23377846 10.23821545 111.88226891 C8.92473125 111.42433952 8.92473125 111.42433952 7.58471203 110.95715904 C2.86489063 109.31119594 -1.85359724 107.66151946 -6.56970692 106.00494957 C-7.99562856 105.50431788 -9.4218606 105.00456943 -10.84839344 104.50568199 C-12.84009169 103.8085963 -14.83042483 103.10775471 -16.8203783 102.40570641 C-17.93727039 102.01302574 -19.05416248 101.62034508 -20.20489979 101.215765 C-22.69928455 100.25726891 -22.69928455 100.25726891 -23.69928455 99.25726891 C-23.81561911 96.74399625 -23.86727878 94.25782508 -23.87628651 91.74335289 C-23.8828577 90.95626442 -23.8894289 90.16917595 -23.89619923 89.35823631 C-23.91599018 86.73994421 -23.9276113 84.12170978 -23.9375658 81.50336266 C-23.94164133 80.60959482 -23.94571686 79.71582699 -23.94991589 78.79497528 C-23.97080727 74.05902014 -23.98509227 69.3230942 -23.99445057 64.58710289 C-24.00548547 59.70350316 -24.03984255 54.82036282 -24.07962227 49.93692493 C-24.10583204 46.17669925 -24.11414656 42.41658188 -24.11773205 38.65627289 C-24.12259145 36.8570205 -24.13418699 35.05777275 -24.15277004 33.25860977 C-24.17724116 30.73102567 -24.17618159 28.2046141 -24.16925526 25.67694664 C-24.18206532 24.94051933 -24.19487537 24.20409203 -24.20807362 23.44534874 C-24.14405055 16.99573328 -21.98793822 11.86897309 -17.7344408 7.01508141 C-17.08346424 6.47625328 -16.43248768 5.93742516 -15.76178455 5.38226891 C-15.11338612 4.82797203 -14.46498768 4.27367516 -13.7969408 3.70258141 C-9.28650863 0.59483484 -5.42685237 0.00647095 0 0 Z " fill="#00CDD9" transform="translate(29.699284553527832,111.74273109436035)"/>
<path d="M0 0 C21.89675022 7.26276992 43.7620548 14.60772455 65.57222366 22.12657928 C67.61297774 22.82989644 69.6539718 23.53251305 71.69503784 24.23492432 C85.42848137 28.96126387 99.15791067 33.6990209 112.875 38.47265625 C113.84166595 38.80892029 114.80833191 39.14518433 115.80429077 39.49163818 C120.29358473 41.0551594 124.77981622 42.62659915 129.26025391 44.21533203 C136.33231063 46.71822266 143.38438631 49.16319836 150.5859375 51.26953125 C164.94752661 55.54024764 164.94752661 55.54024764 168.0390625 59.828125 C169.05160749 62.90440672 169.51886742 65.80511083 170 69 C174.65529068 78.69091557 182.70662102 85.70624233 192.73828125 89.30859375 C193.48464844 89.53675781 194.23101562 89.76492188 195 90 C195.63035156 90.19335938 196.26070312 90.38671875 196.91015625 90.5859375 C199.67273124 91.13328881 202.30918581 91.17053726 205.125 91.1875 C206.17945313 91.20167969 207.23390625 91.21585937 208.3203125 91.23046875 C212.93138818 90.94166465 217.46960832 89.90607834 222 89 C222 118.04 222 147.08 222 177 C173.75278993 177.1209091 173.75278993 177.1209091 153.52734375 177.14648438 C139.56490776 177.16428183 125.60252611 177.18519896 111.64013672 177.22631836 C101.47118347 177.25625173 91.30227433 177.27558238 81.13327825 177.28226548 C75.75056649 177.28617105 70.36798087 177.29532864 64.9853096 177.31719017 C59.91447856 177.33761747 54.84382513 177.34382117 49.77295685 177.33932304 C47.91625629 177.34014545 46.05954953 177.34607375 44.20288467 177.35761642 C31.11243429 177.43497693 19.34084437 177.11262148 9 168 C0.65855594 158.16510962 -0.44040927 148.72231199 -0.34057617 136.23046875 C-0.33972887 134.7416231 -0.34020705 133.2527762 -0.34190369 131.76393127 C-0.34276105 127.74169486 -0.32517758 123.71972927 -0.30418181 119.69755554 C-0.28537156 115.48686106 -0.28366116 111.27615971 -0.28010559 107.06542969 C-0.27079786 99.10058548 -0.24620139 91.13586546 -0.21605712 83.17107582 C-0.18247341 74.09973824 -0.16601713 65.02839459 -0.15097082 55.95701027 C-0.11965064 37.30460322 -0.066915 18.65231161 0 0 Z " fill="#00A4E2" transform="translate(13,229)"/>
<path d="M0 0 C1.57306564 -0.00542958 3.1461262 -0.01255691 4.71917725 -0.02124023 C8.96505014 -0.03937585 13.21053147 -0.03244717 17.45641065 -0.01972389 C21.91381662 -0.0095471 26.37119064 -0.01900233 30.82859802 -0.02526855 C38.31076026 -0.03253064 45.79276418 -0.02299436 53.27490234 -0.00390625 C61.90922682 0.01786772 70.54317351 0.01080158 79.17748886 -0.01121187 C86.60964953 -0.02939748 94.04169686 -0.03190902 101.4738726 -0.0214572 C105.90458135 -0.01524063 110.33511285 -0.01433598 114.76581001 -0.02760315 C118.93158677 -0.03920751 123.09687902 -0.03105293 127.26260376 -0.00802612 C128.78591548 -0.00276373 130.30926839 -0.00421024 131.8325634 -0.01307678 C143.46307149 -0.07450259 151.80670461 1.51643238 160.50170898 9.58789062 C165.89926666 15.62045508 167.38634426 22.3975379 167.29077148 30.33007812 C167.28174805 31.30589844 167.27272461 32.28171875 167.26342773 33.28710938 C167.24602539 34.39119141 167.24602539 34.39119141 167.22827148 35.51757812 C169.20827148 35.51757812 171.18827148 35.51757812 173.22827148 35.51757812 C173.22827148 41.45757812 173.22827148 47.39757812 173.22827148 53.51757812 C163.32827148 53.51757812 153.42827148 53.51757812 143.22827148 53.51757812 C143.22827148 47.57757813 143.22827148 41.63757813 143.22827148 35.51757812 C145.20827148 35.51757812 147.18827148 35.51757812 149.22827148 35.51757812 C148.89642011 27.48858383 148.89642011 27.48858383 145.22827148 20.51757812 C142.44553762 19.12621119 140.16923277 19.38197485 137.05435181 19.3704071 C135.73636093 19.3632518 134.41837006 19.3560965 133.06044006 19.34872437 C131.59115624 19.34588398 130.12187217 19.34317226 128.65258789 19.34057617 C127.11200303 19.33431278 125.57141969 19.32766609 124.03083801 19.32066345 C119.83867807 19.3032442 115.64652954 19.29269954 111.45434237 19.28445792 C108.83679156 19.27931056 106.21924431 19.27323476 103.60169601 19.26694679 C95.41645906 19.24789358 87.23123115 19.23366177 79.04597628 19.22533482 C69.58886608 19.21555577 60.13198952 19.18921949 50.67496169 19.14883393 C43.37045865 19.11870783 36.06602273 19.10386936 28.76145875 19.10055381 C24.39614084 19.09819963 20.0310725 19.08919157 15.66582108 19.06409264 C11.56013931 19.04086749 7.45487242 19.03655602 3.34914207 19.04685402 C1.84145289 19.04735083 0.33374367 19.04098781 -1.17388344 19.02729797 C-3.23103702 19.00966183 -5.28668817 19.0166419 -7.34384155 19.02983093 C-8.49532873 19.02744258 -9.64681591 19.02505423 -10.83319664 19.0225935 C-14.40992929 19.62508064 -15.5493697 20.71478069 -17.77172852 23.51757812 C-18.98866728 25.95145565 -19.09132748 27.93596658 -19.33422852 30.64257812 C-19.41801758 31.55265625 -19.50180664 32.46273437 -19.58813477 33.40039062 C-19.67901367 34.44839844 -19.67901367 34.44839844 -19.77172852 35.51757812 C-17.79172852 35.51757812 -15.81172852 35.51757812 -13.77172852 35.51757812 C-13.77172852 41.45757812 -13.77172852 47.39757812 -13.77172852 53.51757812 C-23.67172852 53.51757812 -33.57172852 53.51757812 -43.77172852 53.51757812 C-43.77172852 47.57757813 -43.77172852 41.63757813 -43.77172852 35.51757812 C-41.79172852 35.51757812 -39.81172852 35.51757812 -37.77172852 35.51757812 C-37.8065332 34.75574219 -37.84133789 33.99390625 -37.87719727 33.20898438 C-38.17830996 21.72368596 -36.15017432 15.49712159 -28.61157227 6.77929688 C-20.02479298 -0.0594173 -10.50795648 -0.06125208 0 0 Z " fill="#00E8D3" transform="translate(153.771728515625,43.482421875)"/>
<path d="M0 0 C1.13373047 -0.020625 2.26746094 -0.04125 3.43554688 -0.0625 C15.50301774 -0.11814252 26.55530165 2.65517425 35.42578125 11.3125 C37.96677029 14.1744007 40.18864779 17.06422169 42.3125 20.25 C41.7948271 25.41637551 37.91601428 28.84385134 34.3125 32.25 C22.03370002 41.65867801 8.24542477 45.69848757 -7.12890625 43.9765625 C-20.18605595 41.75496079 -30.91923438 35.71848192 -39.875 26 C-41.6875 23.25 -41.6875 23.25 -41.4609375 21.3203125 C-38.17789429 12.53236854 -30.21377422 6.74421596 -22 2.9375 C-14.82698819 -0.17036801 -7.69655971 0.03441726 0 0 Z " fill="#00D5D7" transform="translate(377.6875,260.75)"/>
<path d="M0 0 C5.52788298 3.25709287 10.24862747 7.89899861 12.1171875 14.17578125 C13.66363226 21.59600305 12.74644738 27.51017198 9.0390625 34.1171875 C5.53062493 39.33343595 1.06535346 42.10648737 -4.9453125 43.8671875 C-11.3061134 45.00375694 -17.27226484 44.35332586 -22.875 41.0625 C-28.11636548 37.31866752 -31.75572571 32.60087342 -33.4375 26.3125 C-34.32266561 18.99194113 -33.52728413 12.28850129 -28.92578125 6.3671875 C-21.38873698 -1.72878364 -10.3806785 -4.83645248 0 0 Z " fill="#00E1D4" transform="translate(388.4375,208.6875)"/>
</svg>
